<svg id="Layer_2" data-name="Layer 2" xmlns="http://www.w3.org/2000/svg" xmlns:xlink="http://www.w3.org/1999/xlink" viewBox="0 0 400 300" width="406" height="306" class="illustration styles_illustrationTablet__1DWOa"><defs><linearGradient id="linear-gradient" x1="183.12" y1="212.61" x2="252.55" y2="167.15" gradientUnits="userSpaceOnUse"><stop offset="0" stop-color="#f7b11b"></stop><stop offset="1" stop-color="#dd6f31"></stop></linearGradient><linearGradient id="linear-gradient-2" x1="125.4" y1="230.55" x2="182.41" y2="165.53" xlink:href="#linear-gradient"></linearGradient><linearGradient id="linear-gradient-3" x1="325.36" y1="199.29" x2="342.15" y2="186.91" xlink:href="#linear-gradient"></linearGradient></defs><title>PP</title><path d="M194.28,291.14,14.56,184.93C8.84,181.71,3.93,176.44,9.51,173L189.88,69c2.71-1.68,6.82-2.78,9.57-1.18L388.11,177.34c5.72,3.32,6.75,12.6,1,15.93L218,291A23.9,23.9,0,0,1,194.28,291.14Z" fill="#f7b11b"></path><polygon points="156.49 222.48 220.04 182.98 235.45 181.2 163.18 233.23 156.49 222.48" fill="url(#linear-gradient)"></polygon><polygon points="252.53 132.59 252.33 130.02 124.14 198.94 89.85 219.35 93.23 222.48 100.71 226.96 252.53 137.32 252.53 132.59" fill="url(#linear-gradient-2)"></polygon><path d="M98.6,219.36V110.51c0-3.61.5-5.63,3.28-7.15L249.75,17.73a2,2,0,0,1,3.12,1.58l-.36,111.92Z" fill="#9a6cff"></path><polygon points="124.14 134.09 124.14 174.91 132.6 169.97 132.68 129.16 124.14 134.09" fill="#68e1fd"></polygon><polygon points="138.35 119.01 138.2 167 147.08 161.85 147.08 114.09 138.35 119.01" fill="#68e1fd"></polygon><polygon points="152.68 106.03 152.54 158.99 160.45 154.4 160.45 101.31 152.68 106.03" fill="#68e1fd"></polygon><path d="M200.45,139.46a22.1,22.1,0,0,1-6.71-1c-7.67-2.43-13.43-8.8-16.24-17.92-2.58-8.4-2.33-18.3.71-27.86,6.6-20.81,23.77-33.31,39.09-28.45s22.14,25,15.53,45.78h0c-3,9.57-8.54,17.8-15.49,23.17C211.94,137.32,206.13,139.46,200.45,139.46Zm10.17-65.25c-8.41,0-17.86,9.07-21.89,21.77-2.36,7.45-2.6,15-.67,21.28,1.71,5.55,4.91,9.33,9,10.63s8.9.07,13.5-3.49c5.19-4,9.35-10.33,11.72-17.77,4.57-14.41.75-29-8.34-31.91A11,11,0,0,0,210.62,74.22Z" fill="#fff"></path><path d="M214,74.73c4,1.27,7.36,6,9,10.76,2.93-2.6,5.95-5.37,8.74-8.13-3.48-6.93-8.36-11.22-14.44-13.16a22.82,22.82,0,0,0-12.53-.32V75.6a14.29,14.29,0,0,1,5.86-1.38A11,11,0,0,1,214,74.73Z" fill="#007f68"></path><path d="M231.74,77.36q-4.25,4.19-8.74,8.13c1.78,6,1.7,13.58-.7,21.15s-6.52,13.76-11.72,17.77a22.77,22.77,0,0,1-2.89,1.89v12a31.1,31.1,0,0,0,9.65-5.15c7-5.37,12.45-13.6,15.49-23.17C236.65,97.92,236,86.11,231.74,77.36Z" fill="#ffa197"></path><path d="M124.88,179.93v0a2,2,0,0,0,2.91,1.69l36.37-20.77a2,2,0,0,0,1-1.69h0a2,2,0,0,0-2.91-1.69l-36.37,20.72A2,2,0,0,0,124.88,179.93Z" fill="#68e1fd"></path><path d="M192.28,135.8a43.82,43.82,0,0,1,19.11-22.88c8.9-5.12,18.75-6.44,27.73-3.71a30.82,30.82,0,0,1,19.69,18.12c3.65,8.79,3.68,19,.1,28.72a43.82,43.82,0,0,1-19.11,22.88c-8.9,5.12-18.75,6.44-27.73,3.71a30.69,30.69,0,0,1-5.66-2.36C192,172.48,185.64,153.84,192.28,135.8Zm44.49-20.21c-7.06-2.15-14.87-1.07-22,3a36.68,36.68,0,0,0-16,19.19c-6.16,16.73.83,34,15.58,38.47,7.06,2.15,14.87,1.07,22-3a36.68,36.68,0,0,0,16-19.18,33,33,0,0,0,0-24,24.84,24.84,0,0,0-11.1-12.58A24.12,24.12,0,0,0,236.77,115.59Z" fill="#68e1fd"></path><path d="M203,172.06,164.4,214.27a4.6,4.6,0,0,0-1,4.68c1,2.7,4.82,4.55,7.36,2.9a27.29,27.29,0,0,0,3.1-2.44c3.18-2.81,6.14-5.88,9.07-9,3.7-3.89,7.31-7.86,10.89-11.86s6.9-7.78,10.3-11.7q3.68-4.24,7.31-8.5l2.08-2.45" fill="#68e1fd"></path><path d="M336.13,209l22-21.5-11.81-8.68-35.54,13.46C321.68,200.1,324.6,202.3,336.13,209Z" fill="url(#linear-gradient-3)"></path><path d="M341.9,150.21a34.15,34.15,0,0,0-7.13,23.49c1,13.71,8.67,17.69,8.67,17.69l9.19.51s10.93-3.57,9.5-21.4c-1.34-16.74-6.78-20.68-6.78-20.68" fill="#68e1fd"></path><ellipse cx="348.67" cy="150.21" rx="6.77" ry="2.39" fill="#003b94"></ellipse><ellipse cx="348.67" cy="189.93" rx="6.77" ry="2.39" fill="#68e1fd"></ellipse><path d="M345.89,150.93l-8.19-47c-.18-1-1.74-.59-1.56.43l8.19,47C344.51,152.38,346.07,151.95,345.89,150.93Z" fill="#007f68"></path><path d="M347.37,151.09a2,2,0,0,1,.75,0,1.69,1.69,0,0,1,.84.51q1-19.68.35-39.39c0-1-1.65-1-1.62,0Q348.33,131.66,347.37,151.09Z" fill="#007f68"></path><path d="M365.78,105.51A432,432,0,0,0,350,150.64a.81.81,0,0,0,1.56.43,431.94,431.94,0,0,1,15.82-45.14C367.74,105,366.18,104.56,365.78,105.51Z" fill="#007f68"></path><path d="M339.45,123.33s-.88-.11-4.75-4.18,1-7.12-1.22-11.7.92-10.58,1.63-15.15a21.22,21.22,0,0,0,3.39,9c2.91,4.17,4.54,7.93,4.23,13.22a46.81,46.81,0,0,1-1.71,9.87" fill="#007f68"></path><path d="M347.74,130.58s-.83-.32-3.59-5.2,2.72-6.66,1.66-11.64,3.46-10,5.26-14.3a21.22,21.22,0,0,0,1.12,9.51c1.81,4.75,2.47,8.8.89,13.85a46.81,46.81,0,0,1-4.06,9.15" fill="#007f68"></path><path d="M359.27,122.12s-.75-.48-2.45-5.83,4-6,4-11.06,5.44-9.12,8.08-12.92a21.22,21.22,0,0,0-.85,9.53c.8,5,.62,9.12-2,13.74a46.81,46.81,0,0,1-5.85,8.13" fill="#007f68"></path></svg>